PathFileType	4	(X/Y/Z)	/Users/itak/Documents/Research/Walk-IL/dataset/trc/00213_00009.trc
DataRate	CameraRate	NumFrames	NumMarkers	Units	OrigDataRate	OrigDataStartFrame	OrigNumFrames
100.000000	100.000000	4	55	mm	100.000000	209	418
Frame#	Time	RPSI			LPSI			L3			STRN			T10			C7			CLAV			RBAK			LBAK			LSHO			LUPA			LAEL			LAOL			LWTS			LWPS			LFRA			LIFD			LHPS			LHTS			RSHO			RUPA			RAEL			RAOL			RWTS			RWPS			RFRA			RIFD			RHTS			RHPS			RBHD			LFHD			RFHD			LBHD			LHIP			RHIP			RASI			LASI			LKNE			LTHI			LANK			LTIP			LTOE			LMT1			LMT5			LHEE			RKNE			RTHI			RANK			RTIP			RTOE			RMT1			RMT5			RHEE			*53			*54			
		X1	Y1	Z1	X2	Y2	Z2	X3	Y3	Z3	X4	Y4	Z4	X5	Y5	Z5	X6	Y6	Z6	X7	Y7	Z7	X8	Y8	Z8	X9	Y9	Z9	X10	Y10	Z10	X11	Y11	Z11	X12	Y12	Z12	X13	Y13	Z13	X14	Y14	Z14	X15	Y15	Z15	X16	Y16	Z16	X17	Y17	Z17	X18	Y18	Z18	X19	Y19	Z19	X20	Y20	Z20	X21	Y21	Z21	X22	Y22	Z22	X23	Y23	Z23	X24	Y24	Z24	X25	Y25	Z25	X26	Y26	Z26	X27	Y27	Z27	X28	Y28	Z28	X29	Y29	Z29	X30	Y30	Z30	X31	Y31	Z31	X32	Y32	Z32	X33	Y33	Z33	X34	Y34	Z34	X35	Y35	Z35	X36	Y36	Z36	X37	Y37	Z37	X38	Y38	Z38	X39	Y39	Z39	X40	Y40	Z40	X41	Y41	Z41	X42	Y42	Z42	X43	Y43	Z43	X44	Y44	Z44	X45	Y45	Z45	X46	Y46	Z46	X47	Y47	Z47	X48	Y48	Z48	X49	Y49	Z49	X50	Y50	Z50	X51	Y51	Z51	X52	Y52	Z52	X53	Y53	Z53	X54	Y54	Z54	X55	Y55	Z55	

210	2.09	-697.849609375	998.8551025390625	-135.1447448730469	-695.1427001953125	1006.987121582031	-254.8219909667969	-694.3165893554688	1094.994018554688	-220.3350219726562	-431.4922485351562	1264.157470703125	-194.8075408935547	-689.2265014648438	1222.6787109375	-218.9799652099609	-611.2283325195312	1478.10498046875	-212.6813812255859	-450.0398559570312	1384.235595703125	-190.2494964599609	-702.229248046875	1343.135009765625	-150.8063354492188	-618.8025512695312	1448.924438476562	-327.4146423339844	-521.0311279296875	1442.00390625	-364.4352111816406	-534.9354248046875	1333.49267578125	-453.759521484375	-492.8910217285156	1132.162719726562	-498.591064453125	-576.2186279296875	1104.72998046875	-485.1625366210938	-388.6239624023438	924.0200805664062	-396.9672546386719	-370.7253112792969	905.8616943359375	-478.0145568847656	-445.7492980957031	1033.076171875	-498.0332336425781	-322.5344848632812	739.9014892578125	-388.6280212402344	-333.2962951660156	826.0894775390625	-460.8218383789062	-321.346435546875	838.641357421875	-394.3231201171875	-577.4269409179688	1435.091674804688	-39.83332061767578	-611.4830932617188	1375.726318359375	24.26234817504883	-677.2606201171875	1107.9951171875	76.95110321044922	-697.6399536132812	1098.076782226562	-15.44912052154541	-569.38623046875	873.3643798828125	67.43321990966797	-631.6927490234375	871.8966064453125	125.2902984619141	-662.5935668945312	1038.02392578125	97.92121124267578	-583.6500854492188	680.0809326171875	78.62947845458984	-550.5341186523438	750.017822265625	97.10266876220703	-608.181396484375	760.9942016601562	139.1559600830078	-588.4581909179688	1619.247192382812	-152.7902374267578	-381.673583984375	1673.223754882812	-231.3673400878906	-390.1241149902344	1670.7607421875	-131.5633087158203	-533.4365234375	1630.589233398438	-281.098876953125	-605.6458740234375	942.1915283203125	-399.2850341796875	-594.7017211914062	961.9036865234375	-31.61968612670898	-502.3242492675781	1000.241271972656	-71.43316650390625	-495.6980590820312	981.1192016601562	-353.4293518066406	-688.29052734375	472.7095031738281	-328.2086791992188	-649.4674682617188	611.0729370117188	-364.5832214355469	-983.6512451171875	73.73653411865234	-275.8463745117188	-839.7926025390625	290.4444885253906	-315.9806823730469	-783.3877563476562	42.72564697265625	-206.4801177978516	-848.5421752929688	49.72335433959961	-170.1674499511719	-865.3082885742188	37.2851448059082	-283.6732482910156	-1039.99658203125	115.7401275634766	-231.6984558105469	-372.9557495117188	518.5227661132812	-87.38268280029297	-470.7999572753906	765.6845703125	-26.93276405334473	-325.7114868164062	31.67576599121094	-132.4732971191406	-327.8644714355469	404.2691650390625	-112.2141571044922	-118.2822265625	59.56847381591797	-180.9937591552734	-175.3952026367188	52.79458999633789	-223.1018981933594	-214.3722991943359	35.06962203979492	-112.6077575683594	-389.2111206054688	32.73805236816406	-190.7089385986328	nan	nan	nan	nan	nan	nan	
211	2.1	-684.9616088867188	999.9421997070312	-135.3433074951172	-681.9244995117188	1007.388000488281	-255.0824279785156	-681.327392578125	1095.850830078125	-220.4481811523438	-418.7118225097656	1265.070434570312	-194.1220092773438	-676.4277954101562	1223.485473632812	-218.8776245117188	-598.7479248046875	1478.887329101562	-211.7116546630859	-437.4917602539062	1385.090209960938	-189.3907775878906	-689.671630859375	1343.659545898438	-150.1769561767578	-606.0836791992188	1449.983764648438	-326.5203857421875	-508.1800537109375	1443.178344726562	-363.5496520996094	-522.6167602539062	1334.859130859375	-453.287841796875	-483.3779296875	1133.056030273438	-498.7696228027344	-567.1705322265625	1106.932006835938	-485.16162109375	-383.3001403808594	921.5140380859375	-399.7116394042969	-365.9245300292969	904.001708984375	-481.0635681152344	-438.2409973144531	1033.005249023438	-499.3685607910156	-321.2723083496094	735.9805908203125	-393.7938537597656	-330.2367858886719	823.2374267578125	-464.9177856445312	-317.9757385253906	834.70703125	-398.313232421875	-565.017578125	1435.426025390625	-38.94711303710938	-598.8864135742188	1375.823974609375	25.04782104492188	-663.89404296875	1107.741333007812	77.03530883789062	-684.15185546875	1097.962646484375	-15.3768424987793	-555.5884399414062	873.3387451171875	67.29275512695312	-617.8824462890625	871.7083740234375	125.1086349487305	-649.0132446289062	1037.80810546875	97.91370391845703	-569.601318359375	679.9356689453125	78.21978759765625	-536.6873168945312	749.9541625976562	96.72206115722656	-594.28271484375	760.8212280273438	138.7891693115234	-576.7022705078125	1620.108154296875	-151.6120758056641	-370.0777893066406	1674.214721679688	-230.594482421875	-378.3213500976562	1671.783447265625	-130.7623443603516	-521.906982421875	1631.449096679688	-280.0257873535156	-592.2925415039062	941.8312377929688	-399.0380859375	-581.9755859375	964.001708984375	-31.48726272583008	-489.326416015625	1002.171691894531	-71.18709564208984	-482.2736511230469	981.2745971679688	-352.8474731445312	-672.709228515625	471.5693969726562	-329.3029479980469	-634.5072631835938	610.269287109375	-364.7184143066406	-979.9122924804688	79.78852844238281	-277.9804382324219	-829.247802734375	293.1693725585938	-317.7631225585938	-783.1527099609375	42.56247711181641	-206.614013671875	-847.2499389648438	51.17741394042969	-170.9143524169922	-864.2778930664062	37.29526138305664	-283.7785949707031	-1034.01611328125	125.1749725341797	-234.46435546875	-359.3080139160156	520.511474609375	-88.62296295166016	-456.4640808105469	767.9801635742188	-27.75980949401855	-324.9101257324219	32.14792633056641	-132.3752899169922	-316.4324340820312	404.7879638671875	-113.6613464355469	-116.1660919189453	53.8470573425293	-182.6429595947266	-174.0189971923828	48.6802864074707	-223.9441223144531	-213.3590240478516	33.72984313964844	-112.4981689453125	-388.5347290039062	33.87508010864258	-190.3137664794922	nan	nan	nan	nan	nan	nan	
212	2.11	-672.0498657226562	1001.236877441406	-135.4323883056641	-668.7759399414062	1008.051635742188	-255.1968841552734	-668.3523559570312	1097.00830078125	-220.4770660400391	-405.9705200195312	1266.356079101562	-193.4905242919922	-663.6673583984375	1224.595825195312	-218.7804565429688	-586.339599609375	1479.968994140625	-210.7686004638672	-425.0048828125	1386.310546875	-188.579833984375	-677.1317138671875	1344.48046875	-149.5674896240234	-593.4277954101562	1451.394775390625	-325.6500549316406	-495.3829040527344	1444.767822265625	-362.6670227050781	-510.3264465332031	1336.6416015625	-452.8067932128906	-474.0202331542969	1134.3876953125	-498.86279296875	-558.2142333984375	1109.578369140625	-484.9562683105469	-378.1246948242188	919.447509765625	-402.6049499511719	-361.4291687011719	902.6190795898438	-484.2853393554688	-430.9518432617188	1033.39794921875	-500.715087890625	-320.5274047851562	732.5064086914062	-399.3612976074219	-327.6159973144531	820.8406982421875	-469.3047180175781	-314.9683227539062	831.14794921875	-402.6340942382812	-552.6310424804688	1436.105346679688	-38.10234069824219	-586.2869873046875	1376.264038085938	25.80142784118652	-650.285400390625	1107.788452148438	77.10146331787109	-670.4984130859375	1098.141723632812	-15.32564067840576	-541.52587890625	873.6172485351562	67.13232421875	-603.774169921875	871.8585815429688	124.9332046508789	-635.1758422851562	1037.908935546875	97.88177490234375	-555.4114379882812	680.1058959960938	77.79930114746094	-522.6660766601562	750.1464233398438	96.30391693115234	-580.1651000976562	760.9739990234375	138.4272155761719	-564.930419921875	1621.282958984375	-150.4544067382812	-358.4627380371094	1675.506591796875	-229.8143920898438	-366.5053100585938	1673.087280273438	-129.9620666503906	-510.3554382324219	1632.62548828125	-278.9674987792969	-578.878173828125	941.8770751953125	-398.6718139648438	-569.1432495117188	966.191650390625	-31.23694610595703	-476.3442993164062	1004.391296386719	-70.8717041015625	-468.99169921875	981.8365478515625	-352.1787109375	-655.8804321289062	470.4060974121094	-330.8454284667969	-618.758544921875	609.5833740234375	-365.10595703125	-975.1322631835938	86.54048156738281	-280.4764404296875	-817.350830078125	296.0861206054688	-319.9470520019531	-782.842041015625	42.30556106567383	-206.7335357666016	-845.6236572265625	52.87173080444336	-171.8030548095703	-862.9012451171875	37.44589614868164	-283.9375305175781	-1026.593994140625	135.4232330322266	-237.7278442382812	-346.3481140136719	522.1972045898438	-89.69690704345703	-442.4749755859375	770.1868286132812	-28.41406440734863	-324.2962341308594	32.63012313842773	-132.3350982666016	-305.7544250488281	405.1625671386719	-114.9216003417969	-114.6069412231445	49.34796142578125	-183.8589477539062	-172.9780578613281	45.52519226074219	-224.4864044189453	-212.7357635498047	32.99893951416016	-112.2423706054688	-387.9662780761719	34.73957061767578	-190.0029144287109	nan	nan	nan	nan	nan	nan	
213	2.12	-659.1325073242188	1002.711486816406	-135.3317718505859	-655.7628784179688	1008.951232910156	-255.0905456542969	-655.4304809570312	1098.426513671875	-220.3472595214844	-393.2978515625	1267.966674804688	-192.9447937011719	-650.9607543945312	1225.957641601562	-218.6623382568359	-574.0380859375	1481.304565429688	-209.8602752685547	-412.6069946289062	1387.849853515625	-187.84228515625	-664.6253662109375	1345.544189453125	-148.9693298339844	-580.8881225585938	1453.10693359375	-324.807373046875	-482.7047424316406	1446.71875	-361.8094482421875	-498.1409301757812	1338.78955078125	-452.3329772949219	-464.8351440429688	1136.121337890625	-498.8970947265625	-549.3688354492188	1112.612426757812	-484.582763671875	-373.0499572753906	917.8366088867188	-405.6348266601562	-357.1885681152344	901.7354736328125	-487.6607666015625	-423.8686218261719	1034.240234375	-502.08203125	-320.2566528320312	729.519287109375	-405.2995300292969	-325.3965148925781	818.932373046875	-473.9582214355469	-312.265625	827.9943237304688	-407.2531127929688	-540.2842407226562	1437.094970703125	-37.3114013671875	-573.7018432617188	1377.021362304688	26.51922607421875	-636.4761352539062	1108.120361328125	77.15991973876953	-656.7267456054688	1098.593139648438	-15.28583812713623	-527.2051391601562	874.204345703125	66.94721221923828	-589.3656616210938	872.337890625	124.765869140625	-621.1239624023438	1038.3076171875	97.83458709716797	-541.0519409179688	680.5979614257812	77.36875915527344	-508.4338684082031	750.606201171875	95.84093475341797	-565.7999267578125	761.44775390625	138.0708618164062	-553.1549072265625	1622.733154296875	-149.3346557617188	-346.8343505859375	1677.045654296875	-229.0249633789062	-354.6907348632812	1674.610107421875	-129.1626129150391	-498.7895812988281	1634.088989257812	-277.9383239746094	-565.517578125	942.314697265625	-398.14892578125	-556.1839599609375	968.3935546875	-30.83647155761719	-463.37890625	1006.781127929688	-70.50057220458984	-455.9440002441406	982.7822875976562	-351.470458984375	-637.8358764648438	469.2139282226562	-332.846923828125	-602.284423828125	609.0123901367188	-365.7886047363281	-969.1455688476562	93.99775695800781	-283.3899536132812	-804.012939453125	299.1347045898438	-322.5428466796875	-782.3427124023438	41.92539596557617	-206.8867797851562	-843.5552978515625	54.9015007019043	-172.8684539794922	-861.029052734375	37.8323974609375	-284.1996765136719	-1017.608459472656	146.3920745849609	-241.5666046142578	-334.2310485839844	523.4586791992188	-90.62678527832031	-428.900146484375	772.1436767578125	-28.84048080444336	-323.8284606933594	33.10296249389648	-132.3765869140625	-295.9036560058594	405.3236389160156	-116.0412216186523	-113.4998245239258	45.97152328491211	-184.8027496337891	-172.1956787109375	43.18221282958984	-224.8834686279297	-212.3959197998047	32.72367858886719	-111.99560546875	-387.5079650878906	35.36415100097656	-189.8045043945312	nan	nan	nan	nan	nan	nan	
